# xmcd
#
# Track frame offsets:
#	150
#	20025
#	38674
#	57831
#	76765
#	97662
#	116663
#	137696
#	161252
#
# Disc length: 2384 seconds
#
# Revision: 1
# Processed by: cddbd v1.5.2PL0 Copyright (c) Steve Scherf et al.
# Submitted via: EZCDAudioConverter 8.0.2.1
#
DISCID=60094e09
DTITLE=Khắc Việt - Vol 02. Mất Cảm Giác Yêu... Anh Khác Hay Em Khác
DYEAR=2011
DGENRE=World Pop
TTITLE0=Anh Khác Hay Em Khác
TTITLE1=Mất Cảm Giác Yêu
TTITLE2=Anh cần em
TTITLE3=Phải xa nhau (Version 1)
TTITLE4=Đêm trắng
TTITLE5=Anh yêu em lắm
TTITLE6=Chỉ anh hiểu em
TTITLE7=Lại một lần nữa
TTITLE8=Phải xa nhau (Version 2)
EXTD=
EXTT0=
EXTT1=
EXTT2=
EXTT3=
EXTT4=
EXTT5=
EXTT6=
EXTT7=
EXTT8=
PLAYORDER=
